<svg width="28" height="28" viewBox="0 0 28 28" fill="none" xmlns="http://www.w3.org/2000/svg">
<path d="M14.4734 14.9336C14.4114 14.9961 14.3376 15.0457 14.2564 15.0795C14.1752 15.1134 14.088 15.1308 14 15.1308C13.912 15.1308 13.8249 15.1134 13.7436 15.0795C13.6624 15.0457 13.5887 14.9961 13.5267 14.9336L10.4734 11.8736C10.4114 11.8111 10.3376 11.7615 10.2564 11.7277C10.1752 11.6938 10.088 11.6764 10 11.6764C9.91201 11.6764 9.82488 11.6938 9.74364 11.7277C9.6624 11.7615 9.58866 11.8111 9.52669 11.8736C9.40252 11.9985 9.33282 12.1675 9.33282 12.3436C9.33282 12.5197 9.40252 12.6887 9.52669 12.8136L12.5867 15.8736C12.9617 16.2481 13.47 16.4585 14 16.4585C14.53 16.4585 15.0384 16.2481 15.4134 15.8736L18.4734 12.8136C18.5965 12.6894 18.666 12.5218 18.6667 12.3469C18.6672 12.2592 18.6504 12.1722 18.6172 12.091C18.584 12.0098 18.5352 11.9359 18.4734 11.8736C18.4114 11.8111 18.3377 11.7615 18.2564 11.7277C18.1752 11.6938 18.088 11.6764 18 11.6764C17.912 11.6764 17.8249 11.6938 17.7436 11.7277C17.6624 11.7615 17.5887 11.8111 17.5267 11.8736L14.4734 14.9336Z" fill="#FD9222"/>
</svg>
